# xmcd CD database file
#
# Track frame offsets:
#	150
#	12101
#	26004
#	41921
#	57109
#	71007
#	85915
#	100786
#	113264
#	129090
#	143304
#	155996
#	169276
#	181136
#
# Disc length: 2561 seconds
#
# Revision: 0
# Processed by: cddbd v1.5.2PL0 Copyright (c) Steve Scherf et al.
# Submitted via: CDex 1.51
#
DISCID=ab09ff0e
DTITLE=Charlie Parker - I'm In The Mood For Love
DYEAR=2004
DGENRE=Jazz
TTITLE0=Au Privave
TTITLE1=I Can't Get Started
TTITLE2=I Get A Kick Out Of You
TTITLE3=Lover Man
TTITLE4=April In Paris
TTITLE5=They Can't Take That Away From Me
TTITLE6=An Oscar For A Treadwell
TTITLE7=Laird Baird
TTITLE8=Old Folks
TTITLE9=Cosmic Rays
TTITLE10=I'm In The Modd For Love
TTITLE11=Cheryl
TTITLE12=Groovin' High
TTITLE13=Donna Lee
EXTD=YEAR: 2004
EXTT0=
EXTT1=
EXTT2=
EXTT3=
EXTT4=
EXTT5=
EXTT6=
EXTT7=
EXTT8=
EXTT9=
EXTT10=
EXTT11=
EXTT12=
EXTT13=
PLAYORDER=
